<svg width="30" height="31" viewBox="0 0 30 31" fill="none" xmlns="http://www.w3.org/2000/svg">
<g filter="url(#filter0_d_1074_91)">
<path d="M18.24 22.27H18.11C13.67 22.27 11.53 20.52 11.16 16.6C11.12 16.19 11.42 15.82 11.84 15.78C12.24 15.74 12.62 16.05 12.66 16.46C12.95 19.6 14.43 20.77 18.12 20.77H18.25C22.32 20.77 23.76 19.33 23.76 15.26V8.74001C23.76 4.67001 22.32 3.23001 18.25 3.23001H18.12C14.41 3.23001 12.93 4.42001 12.66 7.62001C12.61 8.03001 12.26 8.34001 11.84 8.30001C11.42 8.27001 11.12 7.90001 11.15 7.49001C11.49 3.51001 13.64 1.73001 18.11 1.73001H18.24C23.15 1.73001 25.25 3.83001 25.25 8.74001V15.26C25.25 20.17 23.15 22.27 18.24 22.27Z" fill="#0F1527"/>
<path d="M18 12.75H6.62C6.21 12.75 5.87 12.41 5.87 12C5.87 11.59 6.21 11.25 6.62 11.25H18C18.41 11.25 18.75 11.59 18.75 12C18.75 12.41 18.41 12.75 18 12.75Z" fill="#0F1527"/>
<path d="M8.85 16.1C8.66 16.1 8.47 16.03 8.32 15.88L4.97 12.53C4.68 12.24 4.68 11.76 4.97 11.47L8.32 8.12C8.61 7.83 9.09 7.83 9.38 8.12C9.67 8.41 9.67 8.89 9.38 9.18L6.56 12L9.38 14.82C9.67 15.11 9.67 15.59 9.38 15.88C9.24 16.03 9.04 16.1 8.85 16.1Z" fill="#0F1527"/>
</g>
<defs>
<filter id="filter0_d_1074_91" x="-1" y="0" width="32" height="32" filterUnits="userSpaceOnUse" color-interpolation-filters="sRGB">
<feFlood flood-opacity="0" result="BackgroundImageFix"/>
<feColorMatrix in="SourceAlpha" type="matrix" values="0 0 0 0 0 0 0 0 0 0 0 0 0 0 0 0 0 0 127 0" result="hardAlpha"/>
<feOffset dy="4"/>
<feGaussianBlur stdDeviation="2"/>
<feComposite in2="hardAlpha" operator="out"/>
<feColorMatrix type="matrix" values="0 0 0 0 0 0 0 0 0 0 0 0 0 0 0 0 0 0 0.25 0"/>
<feBlend mode="normal" in2="BackgroundImageFix" result="effect1_dropShadow_1074_91"/>
<feBlend mode="normal" in="SourceGraphic" in2="effect1_dropShadow_1074_91" result="shape"/>
</filter>
</defs>
</svg>
