<svg width="30" height="31" viewBox="0 0 30 31" fill="none" xmlns="http://www.w3.org/2000/svg">
<g filter="url(#filter0_d_1074_88)">
<path d="M15 15.75C12.93 15.75 11.25 14.07 11.25 12C11.25 9.93 12.93 8.25 15 8.25C17.07 8.25 18.75 9.93 18.75 12C18.75 14.07 17.07 15.75 15 15.75ZM15 9.75C13.76 9.75 12.75 10.76 12.75 12C12.75 13.24 13.76 14.25 15 14.25C16.24 14.25 17.25 13.24 17.25 12C17.25 10.76 16.24 9.75 15 9.75Z" fill="#0F1527"/>
<path d="M18.21 22.19C18 22.19 17.79 22.16 17.58 22.11C16.96 21.94 16.44 21.55 16.11 21L15.99 20.8C15.4 19.78 14.59 19.78 14 20.8L13.89 20.99C13.56 21.55 13.04 21.95 12.42 22.11C11.79 22.28 11.14 22.19 10.59 21.86L8.87 20.87C8.26 20.52 7.82 19.95 7.63 19.26C7.45 18.57 7.54 17.86 7.89 17.25C8.18 16.74 8.26 16.28 8.09 15.99C7.92 15.7 7.49 15.53 6.9 15.53C5.44 15.53 4.25 14.34 4.25 12.88V11.12C4.25 9.66001 5.44 8.47001 6.9 8.47001C7.49 8.47001 7.92 8.30001 8.09 8.01001C8.26 7.72001 8.19 7.26001 7.89 6.75001C7.54 6.14001 7.45 5.42001 7.63 4.74001C7.81 4.05001 8.25 3.48001 8.87 3.13001L10.6 2.14001C11.73 1.47001 13.22 1.86001 13.9 3.01001L14.02 3.21001C14.61 4.23001 15.42 4.23001 16.01 3.21001L16.12 3.02001C16.8 1.86001 18.29 1.47001 19.43 2.15001L21.15 3.14001C21.76 3.49001 22.2 4.06001 22.39 4.75001C22.57 5.44001 22.48 6.15001 22.13 6.76001C21.84 7.27001 21.76 7.73001 21.93 8.02001C22.1 8.31001 22.53 8.48001 23.12 8.48001C24.58 8.48001 25.77 9.67001 25.77 11.13V12.89C25.77 14.35 24.58 15.54 23.12 15.54C22.53 15.54 22.1 15.71 21.93 16C21.76 16.29 21.83 16.75 22.13 17.26C22.48 17.87 22.58 18.59 22.39 19.27C22.21 19.96 21.77 20.53 21.15 20.88L19.42 21.87C19.04 22.08 18.63 22.19 18.21 22.19ZM15 18.49C15.89 18.49 16.72 19.05 17.29 20.04L17.4 20.23C17.52 20.44 17.72 20.59 17.96 20.65C18.2 20.71 18.44 20.68 18.64 20.56L20.37 19.56C20.63 19.41 20.83 19.16 20.91 18.86C20.99 18.56 20.95 18.25 20.8 17.99C20.23 17.01 20.16 16 20.6 15.23C21.04 14.46 21.95 14.02 23.09 14.02C23.73 14.02 24.24 13.51 24.24 12.87V11.11C24.24 10.48 23.73 9.96001 23.09 9.96001C21.95 9.96001 21.04 9.52001 20.6 8.75001C20.16 7.98001 20.23 6.97001 20.8 5.99001C20.95 5.73001 20.99 5.42001 20.91 5.12001C20.83 4.82001 20.64 4.58001 20.38 4.42001L18.65 3.43001C18.22 3.17001 17.65 3.32001 17.39 3.76001L17.28 3.95001C16.71 4.94001 15.88 5.50001 14.99 5.50001C14.1 5.50001 13.27 4.94001 12.7 3.95001L12.59 3.75001C12.34 3.33001 11.78 3.18001 11.35 3.43001L9.62 4.43001C9.36 4.58001 9.16 4.83001 9.08 5.13001C9 5.43001 9.04 5.74001 9.19 6.00001C9.76 6.98001 9.83 7.99001 9.39 8.76001C8.95 9.53001 8.04 9.97001 6.9 9.97001C6.26 9.97001 5.75 10.48 5.75 11.12V12.88C5.75 13.51 6.26 14.03 6.9 14.03C8.04 14.03 8.95 14.47 9.39 15.24C9.83 16.01 9.76 17.02 9.19 18C9.04 18.26 9 18.57 9.08 18.87C9.16 19.17 9.35 19.41 9.61 19.57L11.34 20.56C11.55 20.69 11.8 20.72 12.03 20.66C12.27 20.6 12.47 20.44 12.6 20.23L12.71 20.04C13.28 19.06 14.11 18.49 15 18.49Z" fill="#0F1527"/>
</g>
<defs>
<filter id="filter0_d_1074_88" x="-1" y="0" width="32" height="32" filterUnits="userSpaceOnUse" color-interpolation-filters="sRGB">
<feFlood flood-opacity="0" result="BackgroundImageFix"/>
<feColorMatrix in="SourceAlpha" type="matrix" values="0 0 0 0 0 0 0 0 0 0 0 0 0 0 0 0 0 0 127 0" result="hardAlpha"/>
<feOffset dy="4"/>
<feGaussianBlur stdDeviation="2"/>
<feComposite in2="hardAlpha" operator="out"/>
<feColorMatrix type="matrix" values="0 0 0 0 0 0 0 0 0 0 0 0 0 0 0 0 0 0 0.25 0"/>
<feBlend mode="normal" in2="BackgroundImageFix" result="effect1_dropShadow_1074_88"/>
<feBlend mode="normal" in="SourceGraphic" in2="effect1_dropShadow_1074_88" result="shape"/>
</filter>
</defs>
</svg>
